<svg width="217" height="234" viewBox="0 0 217 234" fill="none" xmlns="http://www.w3.org/2000/svg">
<path d="M27.125 110.625C27.125 83.2226 27.125 69.5214 32.1596 58.9284C37.2949 48.1236 45.9986 39.4199 56.8034 34.2846C67.3964 29.25 81.0976 29.25 108.5 29.25V29.25C135.902 29.25 149.604 29.25 160.197 34.2846C171.001 39.4199 179.705 48.1236 184.84 58.9284C189.875 69.5214 189.875 83.2226 189.875 110.625V123.375C189.875 150.777 189.875 164.479 184.84 175.072C179.705 185.876 171.001 194.58 160.197 199.715C149.604 204.75 135.902 204.75 108.5 204.75V204.75C81.0976 204.75 67.3964 204.75 56.8034 199.715C45.9986 194.58 37.2949 185.876 32.1596 175.072C27.125 164.479 27.125 150.777 27.125 123.375V110.625Z" fill="rgba(1,100,10,0.3)"/>
<ellipse cx="108.5" cy="97.5" rx="36.1667" ry="39" fill="white"/>
<path fill-rule="evenodd" clip-rule="evenodd" d="M171.784 203.799C171.786 203.926 171.694 204.035 171.569 204.051C166.157 204.75 159.159 204.75 149.875 204.75H67.1252C57.8423 204.75 50.8445 204.75 45.4326 204.051C45.3071 204.035 45.2151 203.926 45.2173 203.8C45.7665 171.929 73.8891 146.25 108.501 146.25C143.112 146.25 171.235 171.929 171.784 203.799Z" fill="white"/>
</svg>

